# xmcd CD database file
#
# Track frame offsets:
#	150
#	24971
#	55499
#	96374
#	138491
#	171656
#	202111
#
# Disc length: 3243 seconds
#
# Revision: 0
# Processed by: cddbd v1.5.2PL0 Copyright (c) Steve Scherf et al.
# Submitted via: CDex 1.70beta3
#
DISCID=680ca907
DTITLE=Marc Ribot The Young Philadelphians - Live in Tokyo
DYEAR=2015
DGENRE=Jazz
TTITLE0=Love Epidemic
TTITLE1=Love TKO
TTITLE2=Fly, Robin, Fly
TTITLE3=TSOP (The Sound of Philadelphia)
TTITLE4=Love Rollercoaster
TTITLE5=Do It Anyway You Wanna
TTITLE6=The Hustle
EXTD=YEAR: 2015
EXTT0=
EXTT1=
EXTT2=
EXTT3=
EXTT4=
EXTT5=
EXTT6=
PLAYORDER=
